<?xml version="1.0" encoding="utf-8"?>
<svg viewBox="0 0 320 320" xmlns="http://www.w3.org/2000/svg">
  <path d="M 159.783 64 L 193.636 64 L 281.508 282.045 C 273.49 290.418 264.448 297.803 254.584 304 L 227.325 232.113 L 128.033 232.113 L 102.824 302.718 C 93.57 296.685 85.069 289.593 77.492 281.615 L 159.783 64 Z M 137.107 206.121 L 217.604 206.121 L 192.826 139.338 C 185.266 119.048 179.65 102.378 175.981 89.33 C 172.957 104.792 168.691 120.147 163.184 135.392 L 137.107 206.121 Z" style="stroke: rgb(0, 0, 0); stroke-width: 3px; fill: rgb(85, 218, 174);"/>
  <path d="M 140.275 40 L 174.128 40 L 262 258.045 C 253.982 266.418 244.941 273.803 235.077 280 L 207.817 208.113 L 108.526 208.113 L 83.317 278.718 C 74.062 272.685 65.562 265.593 57.985 257.615 L 140.275 40 Z M 117.6 182.121 L 198.097 182.121 L 173.318 115.338 C 165.758 95.049 160.143 78.378 156.473 65.33 C 153.449 80.792 149.183 96.146 143.677 111.392 L 117.6 182.121 Z" style="stroke: rgb(0, 0, 0); stroke-width: 3px; fill: rgb(196, 218, 85);"/>
  <path d="M 120.777 16 L 154.627 16 L 242.492 234.028 C 234.475 242.4 225.434 249.785 215.571 255.981 L 188.314 184.1 L 89.029 184.1 L 63.822 254.7 C 54.568 248.667 46.069 241.576 38.492 233.598 L 120.777 16 Z M 98.103 158.11 L 178.594 158.11 L 153.817 91.332 C 146.257 71.044 140.642 54.375 136.973 41.328 C 133.949 56.789 129.684 72.142 124.177 87.387 L 98.103 158.11 Z" style="stroke: rgb(0, 0, 0); stroke-width: 3px; fill: rgb(218, 85, 129);"/>
</svg>